<svg width="1527" height="1527" viewBox="0 0 1527 1527" fill="none" xmlns="http://www.w3.org/2000/svg">
<path d="M763.33 1259.07C1037.12 1259.07 1259.07 1037.12 1259.07 763.33C1259.07 489.54 1037.12 267.59 763.33 267.59C489.54 267.59 267.59 489.54 267.59 763.33C267.59 1037.12 489.54 1259.07 763.33 1259.07Z" fill="#ED1C24"/>
<path d="M247.43 952.55L204.96 946.38L185.98 907.9L166.99 946.38L124.52 952.55L155.25 982.5L148 1024.79L185.98 1004.82L223.95 1024.79L216.7 982.5L247.43 952.55Z" fill="#ED1C24"/>
<path d="M306.37 1131.84L287.39 1093.37L268.4 1131.84L225.93 1138.01L256.66 1167.97L249.41 1210.26L287.39 1190.29L325.36 1210.26L318.11 1167.97L348.84 1138.01L306.37 1131.84Z" fill="#ED1C24"/>
<path d="M1402.14 952.55L1359.67 946.38L1340.68 907.9L1321.7 946.38L1279.23 952.55L1309.96 982.5L1302.71 1024.79L1340.68 1004.82L1378.66 1024.79L1371.41 982.5L1402.14 952.55Z" fill="#ED1C24"/>
<path d="M1258.26 1131.84L1239.27 1093.37L1220.29 1131.84L1177.82 1138.01L1208.55 1167.97L1201.3 1210.26L1239.27 1190.29L1277.25 1210.26L1270 1167.97L1300.73 1138.01L1258.26 1131.84Z" fill="#ED1C24"/>
<path d="M1466.67 466.2C1428.22 375.3 1373.19 293.67 1303.09 223.57C1232.99 153.47 1151.36 98.44 1060.46 59.99C966.34 20.18 866.37 0 763.33 0C660.29 0 560.32 20.18 466.2 59.99C375.3 98.44 293.67 153.47 223.57 223.57C153.47 293.67 98.44 375.3 59.99 466.2C20.18 560.32 0 660.29 0 763.33C0 866.37 20.18 966.34 59.99 1060.46C98.44 1151.36 153.47 1232.99 223.57 1303.09C293.67 1373.19 375.3 1428.23 466.2 1466.67C560.32 1506.48 660.29 1526.66 763.33 1526.66C866.37 1526.66 966.34 1506.48 1060.46 1466.67C1151.36 1428.22 1232.99 1373.19 1303.09 1303.09C1373.19 1232.99 1428.23 1151.36 1466.67 1060.46C1506.48 966.34 1526.66 866.37 1526.66 763.33C1526.66 660.29 1506.48 560.32 1466.67 466.2ZM1436.93 1047.88C1400.11 1134.93 1347.4 1213.11 1280.25 1280.26C1213.1 1347.41 1134.92 1400.12 1047.87 1436.94C957.75 1475.06 862.02 1494.38 763.32 1494.38C664.62 1494.38 568.89 1475.05 478.77 1436.94C391.72 1400.12 313.54 1347.41 246.39 1280.26C179.25 1213.12 126.53 1134.93 89.71 1047.88C51.59 957.76 32.27 862.03 32.27 763.33C32.27 664.63 51.6 568.9 89.71 478.78C126.53 391.73 179.24 313.55 246.39 246.4C313.53 179.26 391.72 126.54 478.77 89.72C568.89 51.6 664.62 32.28 763.32 32.28C862.02 32.28 957.76 51.61 1047.87 89.72C1134.92 126.54 1213.1 179.25 1280.25 246.4C1347.39 313.54 1400.11 391.73 1436.93 478.78C1475.05 568.9 1494.37 664.63 1494.37 763.33C1494.38 862.03 1475.05 957.76 1436.93 1047.88Z" fill="#00A651"/>
<path d="M609.94 1405.17C608.9 1404.42 607.82 1403.75 606.71 1403.11C605.61 1402.44 604.47 1401.83 603.29 1401.28C600.94 1400.18 598.44 1399.31 595.79 1398.68C589.72 1397.23 584.22 1397.28 579.21 1398.79C574.24 1400.15 571.24 1402.55 570.27 1406.05C569.26 1409.68 570.7 1413.62 574.76 1417.76C578.84 1421.77 584.49 1424.64 591.61 1426.34C595.3 1427.21 598.73 1427.59 601.89 1427.4C605.07 1427.12 607.97 1426.33 610.58 1425.03C615.8 1422.44 617.96 1418.97 617.22 1414.67C616.54 1411.31 614.11 1408.14 609.94 1405.17Z" fill="#00A651"/>
<path d="M1079.42 1345.07C1076.74 1342.98 1072.75 1342.01 1067.58 1342.3C1062.4 1342.58 1057.41 1343.95 1052.57 1346.43C1051.18 1347.14 1049.89 1347.9 1048.68 1348.71C1047.45 1349.49 1046.3 1350.28 1045.24 1351.14C1043.12 1352.86 1041.34 1354.78 1039.9 1356.9C1037.02 1361.16 1036.32 1364.94 1037.86 1368.23C1039.46 1371.66 1043.11 1373.68 1048.91 1374.24C1054.69 1374.8 1061 1373.62 1067.45 1370.2C1074.19 1366.75 1078.77 1362.39 1081.11 1357.18C1081.69 1355.88 1082.1 1354.65 1082.32 1353.5C1082.53 1352.32 1082.56 1351.23 1082.41 1350.21C1082.1 1348.17 1081.11 1346.46 1079.42 1345.07Z" fill="#00A651"/>
<path d="M1096.96 1229.25L1115.02 1215.91C1105.19 1216.55 1095.55 1217.09 1086.07 1217.47C1045.94 1245.74 1002.17 1268.86 956.18 1286.22L949.89 1288.52L946.25 1289.86C943.56 1290.82 940.87 1291.76 938.17 1292.68C936.27 1291.87 934.75 1291.17 933.64 1290.58C930.69 1288.03 927.94 1284.63 925.4 1280.36C920.65 1279.34 915.97 1278.32 911.33 1277.26C915.05 1289.41 919.07 1300.35 923.5 1310.04C921.59 1308.86 919.56 1307.79 917.45 1306.95C915.34 1306.11 913.15 1305.48 910.87 1305.07C906.31 1304.25 901.41 1304.29 896.12 1305.21C892.24 1305.79 887.53 1306.66 882.01 1308.04C879.25 1308.72 876.29 1309.5 873.12 1310.4C872.03 1310.7 870.87 1310.98 869.73 1311.26C843.01 1316.72 815.89 1320.28 788.62 1321.98C757.52 1323.91 726.22 1323.39 695.22 1320.45C670.87 1318.07 646.69 1314.22 622.85 1308.89L612.67 1306.46L607.58 1305.25C605.88 1304.85 604.18 1304.47 602.51 1303.96L582.37 1298.26C577.04 1296.58 571.73 1294.81 566.41 1293.06C566.41 1293.06 566.41 1293.06 566.41 1293.05C559.04 1290.58 551.72 1287.95 544.45 1285.18L543.25 1284.73C490.1 1264.33 440.04 1236.02 395.24 1201.08C397.99 1209 400.88 1217.05 403.9 1225.2C404.75 1226.53 405.66 1227.8 406.57 1229.06C407.75 1235.57 410.33 1240.94 414.22 1245.1C415.3 1246.18 417.16 1247.89 419.96 1249.95C422.78 1251.99 426.47 1254.53 431.01 1257.58C432.75 1258.74 434.33 1259.94 435.76 1261.17C437.19 1262.39 438.45 1263.69 439.64 1264.89C441.97 1267.36 443.68 1269.99 444.8 1272.77C447.02 1278.33 446.84 1284.52 444.19 1291.3C433.45 1293.25 424.84 1294.41 418.66 1294.89C412.56 1295.21 408.83 1294.94 407.56 1294.15C405.03 1292.56 403.33 1288.71 402.6 1282.69C402.32 1279.11 403.1 1275.31 404.95 1271.27C397.41 1270.96 389.84 1270.47 382.14 1269.98C383.14 1280.24 384.7 1288.66 386.63 1295.1C388.65 1301.43 391.09 1305.71 393.74 1308.02C394.74 1309.55 396.37 1311.25 398.63 1313.12C399.76 1314.05 401.04 1315.03 402.48 1316.05C403.2 1316.56 403.96 1317.08 404.76 1317.61C405.57 1318.12 406.43 1318.62 407.33 1319.14C410.24 1320.82 412.52 1322.04 414.17 1322.81C417.27 1324.16 423.16 1324.48 431.62 1323.67C440.18 1322.67 451.41 1320.36 464.83 1316.71C471.33 1314.87 477.22 1315.05 482.51 1317.57C484.39 1318.46 486.2 1319.66 487.96 1321.17C489.72 1322.68 491.4 1324.56 493.11 1326.58C496.5 1330.71 498.2 1334.1 498.16 1336.7L477.01 1385.03C480.08 1389.6 483.2 1394.2 486.39 1398.81C487.97 1401.15 489.63 1403.34 491.28 1405.58L496.29 1412.3L539.88 1300.45L550.81 1304.55L553.55 1305.57L556.33 1306.48L561.88 1308.3C569.29 1310.69 576.63 1313.31 584.18 1315.28C584.18 1315.28 584.18 1315.28 584.18 1315.27C608.93 1322.47 634.16 1328.05 659.67 1331.98L659.1 1335.56C625.07 1337.17 588.29 1340.69 546.75 1344.39C549.79 1349.41 552.91 1354.45 556.11 1359.52C557.72 1362.03 559.31 1364.64 560.99 1367.09L566.06 1374.48C570.17 1375.8 574.16 1377.24 578.04 1378.8C579.98 1379.58 581.9 1380.39 583.79 1381.23C585.7 1381.99 587.59 1382.78 589.44 1383.61C593.16 1385.26 596.78 1387.03 600.3 1388.93C602.06 1389.88 603.8 1390.86 605.52 1391.87C607.24 1392.87 608.92 1393.97 610.62 1394.94C616.33 1398.29 621.47 1401.87 626.04 1405.68C628.32 1407.59 630.46 1409.55 632.46 1411.57C634.45 1413.63 636.34 1415.53 638.06 1417.62C639.19 1419.01 644.86 1427.3 656.2 1442.6C658.51 1444.32 660.85 1445.87 663.21 1447.47L670.32 1452.24L683.89 1335.21C690.02 1335.85 696.13 1336.61 702.28 1337.06C707.67 1337.5 713.06 1337.84 718.46 1338.13L723.23 1338.45C724.77 1338.54 726.32 1338.56 727.87 1338.59C753.46 1339.59 779.13 1338.99 804.62 1336.76L805.07 1341.72C769.58 1352.58 736.11 1364.07 703.81 1377.56C708.31 1381.45 712.9 1385.36 717.56 1389.26L721.07 1392.19C722.25 1393.15 723.43 1394.05 724.62 1394.99L731.81 1400.55C735.92 1400.95 739.97 1401.48 743.97 1402.13C745.97 1402.45 747.95 1402.83 749.92 1403.19C751.89 1403.5 753.85 1403.84 755.8 1404.21C763.59 1405.69 771.18 1407.71 778.63 1410.18C785.41 1412.2 793.1 1415.83 801.91 1421.04C809.07 1425.39 814.19 1428.72 817.17 1431.8C818.92 1433.29 822.27 1437.43 827.38 1444.19L835.4 1447.57C838.09 1448.69 840.79 1449.85 843.5 1450.83L831.33 1357.83C844.06 1355.78 855.73 1357.38 866.62 1361.43C874.67 1364.56 879.88 1368.56 882.13 1373.43C880.49 1373.09 878.86 1372.83 877.24 1372.69C873.64 1372.37 870.09 1372.53 866.58 1373.2C862.93 1373.85 858.91 1375.21 854.39 1376.7C846.97 1381.9 843.5 1386.98 844.21 1391.91C844.83 1396.25 848.25 1399.57 854.61 1401.85C857.78 1402.97 861.12 1403.76 864.57 1403.95C868.01 1404.11 871.59 1403.85 875.28 1403.15C880.5 1402.17 885.12 1400.64 889.11 1398.58C893.09 1396.48 896.39 1393.64 899.06 1390.42C903.99 1384.47 905.6 1378.43 904.08 1372.27C903.36 1369.34 901.95 1366.25 899.89 1363C897.08 1358.76 893.26 1355.02 888.48 1351.74C886.09 1350.1 883.47 1348.58 880.61 1347.18C877.75 1345.75 874.62 1344.29 871.28 1343.01C867.68 1341.65 864.12 1340.54 860.57 1339.68C858.8 1339.25 857.03 1338.88 855.27 1338.58C853.51 1338.28 851.75 1338.06 849.97 1337.77C842.89 1336.77 835.84 1336.78 828.72 1337.82L828.25 1334.23C850.95 1331.35 873.46 1327.14 895.65 1321.67C900.17 1320.76 904.43 1320.26 908.61 1320.69C913.03 1321.11 917.3 1322.4 921.46 1324.54C924.89 1326.26 927.29 1329.27 928.62 1333.6L953.72 1415.64C964.14 1418.2 974.76 1420.64 985.59 1423.02L944.98 1307.21C952.49 1304.57 959.93 1301.74 967.41 1299.03C969.29 1298.38 971.11 1297.56 972.95 1296.81L974 1296.37C979.17 1294.3 984.33 1292.19 989.44 1289.98L989.49 1289.96C1013.02 1279.77 1035.88 1268.05 1057.83 1254.84L1059.74 1257.94C1058.22 1259.43 1056.63 1260.83 1055.04 1262.25C1053.46 1263.7 1051.88 1265.15 1050.3 1266.6C1047.14 1269.55 1043.98 1272.58 1040.83 1275.71C1034.4 1281.76 1027.87 1287.98 1021.34 1294.69C1017.99 1297.87 1014.62 1301.13 1011.24 1304.5C1009.55 1306.2 1007.85 1307.91 1006.15 1309.62C1004.44 1311.33 1002.77 1313.16 1001 1314.81C997.5 1318.19 993.98 1321.67 990.42 1325.25C986.85 1328.79 983.32 1332.6 979.6 1336.11C985.27 1338.19 990.88 1339.87 996.62 1341.65C1002.35 1343.41 1008.16 1345.14 1014.04 1346.83C1015.05 1346.46 1016.06 1346.09 1017.07 1345.72C1018.07 1345.33 1019.06 1344.95 1020.04 1344.56C1022.02 1343.81 1024 1343.1 1025.98 1342.43C1029.94 1341.09 1033.89 1339.91 1037.85 1338.88C1039.82 1338.35 1041.83 1337.93 1043.78 1337.43C1045.73 1336.93 1047.68 1336.47 1049.63 1336.04C1053.54 1335.19 1057.46 1334.51 1061.39 1333.97C1064.7 1333.5 1067.95 1333.17 1071.11 1332.95C1074.22 1332.65 1077.27 1332.48 1080.24 1332.46C1086.19 1332.4 1091.85 1332.89 1097.23 1333.93C1098.11 1334.11 1101.07 1334.97 1106.05 1336.25C1111.02 1337.5 1118.07 1339.26 1127.37 1341.42L1135.96 1340.76L1140.28 1340.41C1141.71 1340.28 1143.12 1340.1 1144.55 1339.94L1078.43 1241.87C1084.58 1237.67 1090.83 1233.54 1096.96 1229.25ZM505.33 1320.28C503.36 1316.66 501.45 1313.4 499.57 1310.52C498.62 1309.1 497.72 1307.68 496.82 1306.37C495.92 1305.06 495.03 1303.83 494.14 1302.7C490.59 1298.18 487.1 1295.11 483.59 1293.46C483 1293.18 482.14 1292.93 480.98 1292.7C479.82 1292.48 478.38 1292.27 476.7 1292.01C473.31 1291.52 468.78 1291.07 463.07 1290.65L463.18 1290.45C465.38 1286.39 466.16 1282.08 465.6 1277.55C465.32 1275.29 464.7 1272.97 463.74 1270.61C462.79 1268.25 461.58 1265.69 460.01 1263.15C464.62 1265.92 469.43 1268.33 474.19 1270.82L481.34 1274.56C483.73 1275.78 486.07 1277.12 488.53 1278.21C498.29 1282.73 507.9 1287.59 517.9 1291.58L505.33 1320.28ZM647.75 1406.93C644.71 1403.07 641.28 1399.34 637.47 1395.74C633.68 1392 629.53 1388.32 625 1384.79C622.73 1383.02 620.37 1381.28 617.92 1379.57C615.47 1377.85 612.91 1376.23 610.3 1374.41C605.07 1370.87 599.47 1367.44 593.49 1364.11C598.61 1363.2 603.72 1362.4 608.85 1361.72C611.41 1361.38 613.97 1361.07 616.54 1360.78C619.13 1360.4 621.72 1360.05 624.31 1359.72C629.5 1359.08 634.69 1358.55 639.91 1358.14C641.21 1358.05 642.52 1357.95 643.83 1357.86C645.14 1357.73 646.46 1357.6 647.78 1357.46C650.42 1357.21 653.06 1356.99 655.71 1356.8L647.75 1406.93ZM753.42 1383.22C762.79 1378.98 768.67 1376.23 771.32 1374.97C772.4 1374.52 773.54 1374.06 774.72 1373.6C775.91 1373.15 777.14 1372.68 778.42 1372.14C780.99 1371.1 783.76 1370.03 786.72 1368.95C789.68 1367.87 792.85 1366.76 796.21 1365.63C799.57 1364.49 803.12 1363.42 806.85 1362.02L811.12 1409.63C796.09 1398.29 776.88 1389.88 753.42 1383.22ZM1097.69 1319.71C1096.48 1319.47 1095.26 1319.24 1094.03 1319.04C1092.78 1318.81 1091.51 1318.6 1090.24 1318.41C1087.68 1318.03 1085.08 1317.74 1082.41 1317.52C1077.09 1317.1 1071.55 1317.01 1065.81 1317.25C1064.39 1317.32 1062.93 1317.4 1061.45 1317.47C1059.96 1317.53 1058.46 1317.6 1056.95 1317.7C1053.92 1317.89 1050.84 1318.17 1047.71 1318.52C1044.58 1318.87 1041.39 1319.31 1038.15 1319.82C1036.52 1320.06 1034.91 1320.39 1033.23 1320.62C1031.55 1320.86 1029.86 1321.12 1028.16 1321.4C1029.83 1319.45 1031.57 1317.62 1033.24 1315.64C1034.92 1313.67 1036.61 1311.73 1038.33 1309.8C1041.76 1305.95 1045.28 1302.19 1048.88 1298.51C1050.7 1296.71 1052.45 1294.75 1054.25 1292.87C1056.05 1290.98 1057.86 1289.11 1059.71 1287.27C1061.55 1285.42 1063.42 1283.59 1065.31 1281.78C1067.19 1279.96 1069.14 1278.22 1070.99 1276.32L1097.69 1319.71Z" fill="#00A651"/>
<path d="M156.81 540.26C158.14 536.66 159.45 533.05 160.9 529.5L165.15 518.8L169.66 508.21C165.81 510.56 161.95 512.95 158.07 515.39C154.25 517.85 150.45 520.37 146.61 522.92C144.19 528.84 142.09 534.89 139.84 540.89C136.39 544.25 134.24 546.27 133.1 546.79C131.29 548.01 128.78 548.52 125.58 548.34C123.57 548.34 120.24 549.88 115.6 553.03C112.92 555.2 110.26 557.27 107.63 559.27C124.02 565.47 135.43 569.08 141.81 570.23C147.48 571.15 152.54 572.01 156.99 572.8C151.47 574.4 146.54 576.44 142.21 578.89C137.96 581.36 134.31 584.25 131.27 587.51C130.6 588.21 129.66 589.34 128.43 590.9C127.21 592.46 125.79 594.47 124.05 596.92C122.19 600.01 120.57 603.86 119.46 608.5C118.4 612.99 117.69 617.28 117.31 621.35C116.95 625.42 117.05 629.31 117.42 632.94C118.05 639.37 119.95 645.12 122.84 650.1C121.33 651.59 119.82 653.05 118.31 654.56C115.03 657.79 111.95 661.1 108.75 664.43C107.32 672.11 106.42 679.55 105.62 686.66C104.79 689.4 104.13 690.96 103.48 691.32C98.5602 693.81 94.7201 693.85 91.9901 691.31L85.3901 699.3C83.1801 701.99 80.9801 704.7 78.8701 707.44C95.2501 708.91 107.48 709.57 115.59 709.46L130.67 709.28C126.18 711 122.17 713.53 118.64 716.89C115.1 720.25 112.02 724.45 109.62 729.48C107.18 734.51 105.15 740.36 103.93 747.02C103.29 750.35 102.77 753.88 102.39 757.61C102.05 761.34 101.88 765.26 101.87 769.36C101.86 779.74 103.59 788.71 106.85 796.11C109.63 802.24 113.88 807.43 119.53 811.61C125.18 815.8 130.5 817.62 135.41 817.25C142.43 816.72 147.56 811.82 151.13 802.79C152.07 800.74 152.48 798.51 152.39 796.11C152.27 793.11 150.49 787.89 147.22 780.28C143.97 772.67 142.44 768.06 142.44 766.64C142.46 763.19 143.38 761.47 145.17 761.5C146.83 761.51 151.27 766.39 158.81 775.63C164.71 783.1 169.37 788.88 172.67 793.21C178.45 786.01 184.36 779.02 190.39 772.23C185.97 767.08 181.86 762.51 178.04 758.58C174.27 754.65 170.73 751.36 167.43 748.75C160.81 743.53 155.19 741.09 150.45 741.68C143.74 742.58 138.67 745.75 135.17 751.26C131.64 756.76 129.81 764.61 129.88 774.66C129.9 778.6 130.19 782.12 130.71 785.21C123.26 779.19 119.4 769.27 119.72 755.79C119.81 752.84 120.29 749.88 121.17 746.91C122.05 743.94 123.29 740.97 125.05 738.02C126.79 735.07 128.97 732.3 131.6 729.71C134.22 727.12 137.31 724.73 140.92 722.54C148.1 718.16 154.21 716.31 159.27 716.74L220.37 723.1L225.3 718.39C226.95 716.83 228.67 715.3 230.34 713.77C233.72 710.72 237.05 707.73 240.44 704.8L120.96 690.16C121.98 682.61 122.86 675.03 124.12 667.51C124.73 663.75 125.25 659.97 125.95 656.22L126.15 655.1C128.57 658.29 131.29 660.9 134.31 662.95C138.24 665.62 142.61 667.32 147.4 668.1C151.83 668.82 156.07 668.64 160.13 667.6C162.16 667.08 164.14 666.34 166.08 665.4C168.05 664.46 169.97 663.31 171.85 661.95C175.99 659 179.37 655.31 182.3 650.91C183.77 648.71 185.08 646.33 186.24 643.75C187.39 641.17 188.39 638.4 189.34 635.46C190.49 631.87 191.14 628.28 191.3 624.67C191.54 621.08 191.29 617.46 190.54 613.79C190.17 611.96 189.67 610.3 189.06 608.82C188.47 607.35 187.76 606.05 186.91 604.93C185.22 602.69 183.01 601.16 180.28 600.37C178.42 599.83 176.31 599.84 173.97 600.42C166.39 602.2 161.58 607.66 159.24 616.54C156.58 627.87 158.83 634.32 166.03 635.9C167.34 636.19 168.87 636.53 170.63 636.92C169.53 638.57 167.65 639.87 165.01 640.83C160.61 642.18 156.64 642.52 153.13 641.79C148.89 640.91 145.1 637.63 141.81 631.81C140.14 628.9 139.17 625.79 138.82 622.49C138.46 619.19 138.71 615.69 139.58 612.02C141.79 603.51 146.64 596.21 154.42 590.54C163.42 583.93 172.37 582.26 180.9 584.96L241 604C244.73 601.67 248.37 599.36 252.12 597.14C255.88 594.93 259.63 592.76 263.35 590.65L152.87 551.09C154.1 547.44 155.51 543.87 156.81 540.26Z" fill="#00A651"/>
<path d="M369.42 332.85C366.61 329.73 362.95 327.31 358.45 325.69C353.97 324.1 348.63 323.29 342.39 323.32C337.51 323.36 333.74 324.08 331.02 325.31L331.23 325.1C329.75 325.3 328.36 326.05 327.08 327.33C326.31 328.55 324.9 331.14 323.08 335.26C317.72 347.7 314.37 355.18 312.2 357.51C308.61 361.47 305.57 362.35 302.86 359.94C300.75 358.05 298.94 353.05 297.77 344.93C296.63 336.82 297.08 331.3 298.99 328.54C305.68 328.03 309.47 327.89 310.43 327.96C316.53 327.61 325 323.84 335.98 316.98C344.79 311.63 353.01 305.81 360.75 299.45C363.97 311.52 368.93 321.05 375.06 328.03C379.03 332.55 385.19 337.39 393.44 342.71C400.12 347.07 406.73 351.49 413.28 355.97C414.36 356.43 416.75 355.74 420.47 353.94C423.83 352.54 426.24 351.24 427.72 350.02C428.52 349.36 429.11 348 429.48 345.94C415.71 339.76 405.9 333.71 400.67 327.31C398.19 324.29 395.73 320.57 393.33 316.12C389.77 311.46 387.51 304.65 386.77 295.52C385.99 286.98 386.81 279.1 389 271.62C382.69 271.6 376.76 271.66 371.25 271.79C365.8 271.99 360.77 272.24 356.16 272.53C353.84 275.51 351.83 278.37 349.94 280.86C348.06 283.37 346.36 285.59 344.83 287.54C341.85 291.51 339.54 294.34 337.89 296.04C337.02 296.93 336.04 297.83 334.92 298.75C333.82 299.69 332.62 300.66 331.28 301.64C328.61 303.61 325.44 305.66 321.78 307.81C314.13 312.68 309.42 314.31 307.72 312.61C307.4 312.29 307.33 311.62 307.5 310.6C308.86 306.91 310.09 304.09 311.16 302.17C323.65 289.87 336.62 278.05 350.02 266.77C356.18 261.58 362.47 256.53 368.84 251.6C372.37 248.79 376.18 246.95 380.13 245.97C384.1 245 388.17 244.84 392.45 245.69C395.96 246.33 398.98 248.52 401.56 252.21L450.49 322.18C454.53 322.73 458.52 323.28 462.5 323.89C466.51 324.55 470.47 325.23 474.4 325.93L407.73 223.59C413.61 219.69 419.55 215.87 425.55 212.14C426.25 211.71 426.96 211.28 427.66 210.85C434.03 215.74 441.04 220.78 448.63 226C456.24 231.26 464.47 236.79 473.16 242.52C478.99 246.28 487.56 250.18 498.39 254.09C506.22 257.07 511.99 258.89 515.91 259.43C518.83 260.02 521.89 260.35 525.06 260.35C528.24 260.37 531.51 260.03 534.99 259.55C538.45 259.03 541.71 258.35 544.77 257.49C547.86 256.69 550.76 255.74 553.48 254.59C562.21 250.91 570.59 244.99 578.98 236.54C581.99 233.46 584.55 230.43 586.58 227.25C588.62 224.09 590.16 220.83 591.22 217.59C593.32 211.07 593.39 204.2 591.25 197.04C589.82 192.27 587.48 187.79 584.15 183.6C580.89 179.65 577.35 176.22 573.59 173.51C569.83 170.79 565.81 168.68 561.54 167.17C557.26 165.62 552.77 164.82 548.04 164.62C545.68 164.52 543.25 164.56 540.77 164.76C538.29 164.96 535.79 165.41 533.22 165.95C530.35 166.59 527.73 167.25 525.37 167.93C523.01 168.61 520.94 169.4 519.12 170.16C509.3 174.2 501.89 180.26 496.98 187.82C491.62 195.91 490.7 203.28 493.98 210.07C494.77 211.7 495.92 213.4 497.43 215.18C501.49 219.75 506.15 222.4 511.4 223.15C514.01 223.5 516.81 223.44 519.77 222.93C522.73 222.41 525.84 221.41 529.12 219.93C536.83 216.71 542.01 212.78 544.9 208.45C547.76 204.05 548.2 198.96 546.14 193.21C544.66 189.26 542.22 186.16 538.78 183.95C540.55 182.93 542 182.2 543.13 181.76C549.16 179.44 555.29 180.03 561.26 183.29C566.49 186.25 569.88 190.25 571.49 195.1C573.5 201.14 571.9 207.37 567.07 214.15C563.68 218.75 560.19 222.51 556.63 225.66C553.06 228.78 549.32 231.01 545.48 232.68C528.13 239.9 511.17 240 493.17 233.13C485.41 230.2 477.05 226.23 467.78 220.88C463.05 218.05 455.31 213.28 444.09 206.6C438.58 207.86 433.19 209.4 427.69 210.84C428.29 210.47 428.88 210.11 429.48 209.75C431.37 208.59 433.26 207.43 435.17 206.3C436.15 205.72 437.14 205.15 438.13 204.57C440.42 203.23 442.71 201.88 445.02 200.58C445.01 200.58 445 200.58 444.99 200.58C489.7 175.04 537.44 154.9 586.86 140.75C586.87 140.75 586.88 140.76 586.88 140.76C605.49 135.45 624.33 130.94 643.35 127.35C662.36 123.78 681.53 121.06 700.78 119.21C703.91 118.91 706.05 119.31 707.19 120.41C710.39 123.59 712.05 126.4 712.23 128.64C712.5 132.1 711.8 135.07 710.17 137.53C708.54 140.04 705.97 142.07 702.47 143.62C700.51 142.22 697.61 140.65 693.75 138.96C689.89 137.34 685.06 135.6 679.21 133.73C670.33 130.88 661.14 130.11 651.94 131.8C635.73 134.67 627.05 142.57 626.02 154.57C625.52 160.72 627.96 165.47 633.12 168.86C634.41 169.71 635.77 170.39 637.22 170.93C638.67 171.49 640.19 171.9 641.78 172.14C644.97 172.63 648.47 172.5 652.3 171.73C657.29 170.86 661.48 168.25 664.97 163.88C668.46 159.55 669.96 155.37 669.34 151.18C669.05 149.24 668.18 147.54 666.73 146.07C670.52 146.74 675 148.04 680.12 150.04C681.27 150.65 682.34 151.21 683.37 151.74C682.42 152.32 681.5 152.88 680.64 153.4C678.47 154.78 676.6 155.97 675.03 156.97C669.01 163.96 665.6 168.37 664.52 170.28C661.77 175.21 660.89 180.26 661.79 185.47C662.28 188.3 663.3 191.15 664.83 194.02C666.37 196.92 669.47 199.1 674.13 200.83C678.8 202.59 683.17 203.14 687.35 202.54C692.45 201.93 697.01 199.97 701.13 196.76C705.26 193.63 707.16 189.88 706.75 185.52C706.44 182.22 704.85 179.49 701.95 177.34C699.04 175.16 695.47 174.39 691.27 174.91C690.51 175 689.55 175.12 688.41 175.26C689.09 172.93 690.29 170.76 692.01 168.76C694.05 166.94 695.86 165.39 697.45 164.17C699.04 162.97 700.4 162.06 701.52 161.42C704.56 160.23 706.67 159.58 707.84 159.46L707.63 159.33C707.88 159.36 708.12 159.39 708.38 159.42L710.83 159.86C710.24 159.92 710.43 160.89 711.37 162.77C712.99 165.64 713.83 167.73 713.92 168.92L717.27 210.69C716.31 210 715.64 209.53 715.25 209.27C710.11 206.17 702.46 204.93 692.52 206.25C690.89 206.47 688.17 206.72 684.4 207.32C680.04 208.37 676.07 209.16 672.51 209.86C668.96 210.6 665.79 211.14 663.01 211.47C660.22 211.78 657.84 211.98 655.83 211.97C653.82 211.95 652.19 211.73 650.94 211.29C648.04 210.28 645.65 208.59 643.8 206.29C641.95 204 640.62 201.03 639.84 197.39C639.06 193.75 639.17 188.88 640.27 182.86C637.11 181.85 633.95 180.92 630.75 179.96C628.47 179.55 626.91 180.6 626.1 183.11C623.6 191.13 623.29 198.51 624.89 205.09C626.79 212.89 631.45 219.45 638.66 225.29C642.58 228.77 648.36 230.72 656.08 231.71C663.23 232.5 669.85 232.44 676 231.03C678.57 230.45 683.06 229.22 689.52 227.17C695.31 225.38 699.89 224.3 703.2 223.88C706.97 223.51 710.34 223.7 713.27 224.44C714.74 224.81 716.09 225.32 717.34 225.96C718.59 226.64 719.74 227.45 720.77 228.4C723.83 231.82 726.1 234.76 727.63 237.22C729.29 238.36 730.94 239.46 732.58 240.63L737.48 244.15L734.41 178.76C733.79 165.49 733.05 158.11 732.19 156.64C731.01 154.33 729.59 152.33 727.96 150.61C728.98 149.64 729.58 149.04 729.71 148.82C734.26 144.23 736.53 139.82 736.35 135.59C736.25 133.18 734.56 128.95 731.16 122.9C729.92 120.6 728.74 118.72 727.62 117.21C743.14 116.38 758.69 116.11 774.22 116.38L772.41 219.8C775.41 222.52 778.37 225.27 781.29 228L785.63 232.1C787.07 233.47 788.49 234.9 789.9 236.3L795.88 117.08L807.96 117.77L820.02 118.76C824.04 119.05 828.05 119.52 832.06 119.95C836.07 120.41 840.09 120.76 844.08 121.34C840.82 118.2 837.5 115.24 834.14 112.2C830.78 109.2 827.38 106.11 823.92 103.17L810.31 102.05C805.77 101.72 801.22 101.51 796.68 101.24L793.54 91.99C791.6 86.59 787.88 80.8 782.24 74.5C776.6 68.15 770.55 63.34 764.17 59.84C761.38 58.33 758.66 56.89 756.03 55.71C753.39 54.51 750.84 53.45 748.37 52.52C743.43 50.66 738.84 49.29 734.63 48.61C730.01 47.87 725.6 47.25 721.38 46.74C717.17 46.3 713.17 46.01 709.38 45.8C701.79 45.33 695.08 45.61 689.25 46.16C685.23 46.52 681.25 47.16 677.3 47.96C673.36 48.76 669.45 49.66 665.59 50.8C661.74 51.98 657.93 53.3 654.18 54.78C652.3 55.53 650.44 56.28 648.59 57.13C646.75 57.99 644.92 58.88 643.1 59.81C630.52 66.22 625.13 73.11 626.44 79.73C627.11 83.14 628.8 85.93 631.45 88.11C634.11 90.29 637.74 91.83 642.36 92.93C646.98 94 651.48 94.71 655.89 95.09C660.32 95.55 664.65 95.66 668.92 95.41C669.26 95.45 671.81 95.14 676.6 94.77C681.39 94.4 688.4 93.65 697.65 93.13C701.57 92.92 705.01 92.78 707.96 92.9C710.92 93.02 713.39 93.26 715.38 93.63C719.35 94.37 721.38 95.61 721.48 97.34C721.54 98.25 720.18 99.79 717.56 101.93C671.25 105.1 625.22 113.16 580.56 126.09C579.47 126.41 578.37 126.73 577.28 127.05C573.89 128.05 570.52 129.08 567.15 130.13C565.06 130.78 562.98 131.43 560.89 132.09L560.11 132.35C560.1 132.35 560.09 132.36 560.08 132.36L548.44 136.26C544.3 137.66 540.21 139.22 536.09 140.69C519.68 146.77 503.48 153.43 487.59 160.78C463.72 171.9 440.45 184.35 418.03 198.2C415.02 200.01 412.08 201.94 409.12 203.83C408.18 204.43 407.24 205.02 406.31 205.63L402.84 207.85L397.86 211.2C395.88 210.9 394.28 210.62 393.07 210.34C389.64 208.66 386.13 206.13 382.53 202.74C377.66 203.12 372.84 203.66 367.94 204.16C375.18 214.52 382.37 223.63 389.41 231.54C385.21 230.31 380.85 229.96 376.52 230.73C372.77 231.38 368.95 232.8 365.1 234.89C364.93 234.89 364.77 234.9 364.6 234.9C364.21 235.19 363.84 235.5 363.45 235.79C363.4 235.82 363.35 235.84 363.3 235.87C360.11 237.89 356.36 240.63 352.08 244.09C349.93 245.8 347.73 247.8 345.36 249.93C344.61 250.62 343.81 251.35 343.03 252.07C297.78 289.63 257.39 333.17 223.4 381.38C222.37 382.83 221.43 384.15 220.62 385.28C219.74 386.58 218.99 387.67 218.39 388.57L214.18 391.18C212.1 391.85 209.39 391.31 206.05 389.56C205.06 389.68 204.2 389.76 203.45 389.78C198.56 392.57 193.82 395.53 188.95 398.48C200.69 405.03 212.4 411.61 224.08 418.25L234.87 423.09C229.51 423.01 224.14 423.62 218.97 425.05C213.8 426.48 208.69 428.66 203.66 431.59C198.23 434.89 193.23 438.87 188.88 443.57C186.73 445.94 184.72 448.47 182.85 451.17C181.92 452.52 181 453.9 180.15 455.33C179.32 456.77 178.52 458.26 177.76 459.78C165.97 483.16 165.8 506.23 176.55 526.57C178.14 529.47 179.97 531.33 182.05 532.18C184.82 533.31 188.04 532.7 191.7 530.39C195.42 528.11 197.79 525.05 198.82 521.1C199.22 518.31 199.61 515.84 200.02 513.71C200.42 511.57 200.76 509.75 201.04 508.24C201.63 505.22 202.03 503.48 202.24 503.01C204.08 498.72 207.76 497.93 213.11 500.56C215.26 501.61 216.48 502.88 216.76 504.34L217.9 509.33L219.14 514.32L221.67 524.19C224.75 520.61 227.76 517.03 230.87 513.52L240.27 503.15C236.05 483.09 232.89 462.39 230.81 441.14C236.05 438.31 243.82 437.61 254.19 439.34C265.26 447.12 276.38 454.83 287.48 462.55C286.86 462.78 286.23 463.03 285.56 463.32C282.34 464.71 278.71 466.82 274.46 469.58C273.38 470.53 272.31 471.5 271.26 472.48C270.24 473.48 269.24 474.5 268.25 475.54C266.28 477.61 264.37 479.75 262.54 481.95C260.7 484.15 259.05 486.47 257.41 488.82C255.8 491.19 254.19 493.57 252.79 496.08C251.34 498.65 249.96 501.07 248.67 503.35C247.36 505.62 246.14 507.76 245.05 509.79C242.85 513.82 240.89 517.25 239.27 520.12C236.11 525.9 234.01 529.29 232.99 530.28C224.61 538.76 216.71 541.66 209.42 538.63C208.05 538.06 206.62 536.72 205.24 534.64C197.6 539.15 193.57 542.11 193.12 543.21C192.75 544.14 192.87 545.05 193.49 545.94C195.08 547.21 196.5 548.08 197.76 548.57C202.84 551.2 206.44 552.91 208.53 553.73C216.04 556.65 223.81 556.98 231.7 554.93C235.14 554 238.39 552.48 241.54 550.4C244.74 548.34 247.79 545.71 250.69 542.51C253.36 539.6 255.92 536.54 258.08 533.18C260.22 529.81 262.22 526.28 263.9 522.45C264.66 520.7 265.4 519.02 266.11 517.4C266.86 515.8 267.58 514.27 268.27 512.79C269.66 509.85 270.94 507.17 272.09 504.75C274.53 499.97 276.49 496.22 277.97 493.51C279.57 490.65 281.25 488.11 282.91 485.82C284.58 483.54 286.23 481.51 287.99 479.83C291.47 476.44 294.95 474.14 298.48 473C299.16 472.93 300.42 472.87 302.18 472.81C302.27 472.87 302.36 472.94 302.46 473C302.73 472.93 302.98 472.85 303.25 472.78C305.87 472.72 309.41 472.69 313.9 472.72C322.36 472.76 328.93 471.92 333.39 469.84C329.78 467.31 326.56 465.28 323.72 463.71L230.59 398.68L233.73 394.07L236.97 389.53C238.78 387.01 240.56 384.48 242.39 381.97C244.6 378.95 246.85 375.95 249.11 372.96C250.01 371.77 250.93 370.59 251.84 369.4C259.92 358.89 268.3 348.62 277 338.62C276.93 340.53 276.85 342 276.75 343.03C276.81 349.66 277.68 355.21 279.11 359.6C280.54 363.99 282.57 367.24 285.16 369.41C286.88 370.86 288.92 372.17 291.25 373.35C295.29 375.18 299.71 375.96 304.48 375.72C309.25 375.48 314.49 374.35 320.02 372.17C322.44 370.83 324.75 369.39 326.89 367.77C329.03 366.14 331 364.34 332.82 362.35C334.96 360.01 337.17 357.17 339.33 353.69C340.42 351.97 341.48 350.05 342.61 348.06C343.74 346.06 344.87 343.91 346 341.61C346.48 340.71 346.92 340.05 347.33 339.64C348.43 338.54 349.83 338.26 351.54 338.78C353.25 339.32 354.63 340.14 355.67 341.23C358.54 344.26 358.17 349.41 354.64 356.55C354 357.78 353.29 359 352.54 360.25C351.81 361.51 351.01 362.77 350.16 364.04C348.46 366.58 346.52 369.14 344.36 371.74C341.94 374.74 338.91 377.25 335.25 379.32C331.6 381.39 327.43 383.12 322.52 384.39C318.32 385.39 314.37 386.09 310.5 386.34C306.64 386.6 302.89 386.44 299.29 385.86C296.19 385.33 290.66 383.55 282.51 380.56C276.6 378.61 270.53 374.81 264.36 369.05C262.41 369.63 257.6 372.15 250.24 377.07C268.7 391.21 282.52 399.27 291.58 401.43C302.94 404.4 312.43 405.61 320.05 404.89C338.26 403.46 352.36 397.1 363.58 385.19C366.71 381.96 369.15 378.44 371.19 374.86C373.21 371.26 374.65 367.42 375.55 363.35C377.46 355.34 376.96 347.55 374.1 340.2C372.89 337.41 371.33 334.97 369.42 332.85ZM714.19 76.76C711.57 76.26 708.73 75.87 705.69 75.59C702.65 75.34 699.4 75.27 695.95 75.27C695.27 75.26 693.92 75.31 691.88 75.41C689.84 75.51 687.11 75.66 683.71 75.99C680.31 76.31 676.22 76.68 671.45 77.13C666.68 77.64 661.25 78.34 655.12 79.09C646.91 80.26 642.63 79.94 642.26 77.83C642.02 76.42 643.3 74.89 646.13 73.25C647.54 72.43 649.35 71.58 651.54 70.7C653.74 69.87 656.33 69.03 659.3 68.16C668.13 65.55 676.45 63.99 684.14 63.04C688.64 62.51 693 62.25 697.19 62.03C699.29 61.93 701.34 61.86 703.36 61.82C705.38 61.8 707.36 61.86 709.29 61.92C713.16 62.05 716.87 62.3 720.41 62.67C723.95 63.06 727.33 63.66 730.53 64.33C733.73 65.01 736.76 65.79 739.61 66.69C742.46 67.65 745.15 68.73 747.65 69.91C752.66 72.3 756.97 75 760.57 78.35C768.77 85.79 773.09 91.18 773.91 94.51L775.74 100.43C770.4 100.37 765.07 100.35 759.73 100.37C759.71 100.35 759.69 100.34 759.66 100.32C758.08 100.33 756.51 100.37 754.93 100.39C753.89 100.4 752.85 100.42 751.81 100.43C749.41 100.47 747.02 100.51 744.62 100.58C742.95 100.62 741.28 100.69 739.6 100.75C739.19 100.76 738.79 100.78 738.38 100.79C738.56 99.66 738.67 98.57 738.64 97.58C738.18 90.5 734.48 85.01 727.37 81.15C723.83 79.18 719.43 77.75 714.19 76.76ZM200.65 484.45C196.78 486.17 193.42 489.37 190.61 493.99C188.93 489.73 188.44 484.95 189.13 479.65C189.86 474.38 191.9 468.66 195.08 462.49C196.54 459.81 198.47 457.29 200.85 454.96C203.23 452.62 206.06 450.46 209.43 448.57C209.94 454.47 210.73 460.45 211.43 466.28C212.12 472.11 213.04 477.97 213.94 483.73C209.01 482.53 204.55 482.74 200.65 484.45Z" fill="#00A651"/>
<path d="M951.11 144.28C966.99 149.21 982.7 154.72 998.18 160.79L996.79 164.38C980.86 162.19 962.41 161.42 941.87 162.8C936.34 163.26 929.98 163.96 922.74 165.42C919.13 166.13 915.33 166.9 911.33 167.87C907.32 168.88 903.12 170 898.75 171.25C901.39 175.88 903.96 180.49 906.46 185.08C908.96 189.69 911.36 194.41 913.72 199.04C915.74 199.72 917.72 200.41 919.64 201.19C921.55 201.99 923.4 202.83 925.2 203.7C928.79 205.45 932.19 207.28 935.29 209.44C938.41 211.55 941.31 213.8 943.97 216.17C946.61 218.61 949.01 221.21 951.18 223.92C959.84 234.8 964.54 248.01 965.34 263.18C966.25 266.2 967.16 269.18 968.01 272.21L970.48 281.3L1018.25 169.14C1022.91 171.11 1027.51 173.23 1032.1 175.36C1040.29 179.09 1045.67 185.41 1048.24 193.68C1049.34 197.07 1048.81 200.84 1046.78 204.85L1008.3 281.22C1011.09 288.98 1013.74 296.6 1016.11 304.36L1074.69 197.05C1081.11 200.54 1087.36 204.31 1093.66 208.01C1096.79 209.88 1099.87 211.85 1102.98 213.77L1107.63 216.67L1108.04 216.94C1099.21 217.95 1093.11 221.42 1089.65 227.16C1085.58 233.9 1085.29 241.65 1088.46 250.36C1090.01 254.77 1092.18 258.74 1095 262.28C1097.81 265.85 1101.19 269.12 1105.29 271.93C1110.55 275.63 1115.01 277.94 1118.85 278.65C1124.52 279.84 1130.27 279.71 1136.26 278.09C1142.26 276.46 1146.67 273.95 1149.55 270.24C1151.87 267.26 1153.34 263.87 1153.96 260.05C1154.55 256.26 1154.25 252.07 1153.05 247.43C1151.85 242.8 1149.87 238.47 1147.03 234.63C1145.62 232.69 1144.02 230.85 1142.24 229.09C1141.35 228.21 1140.41 227.36 1139.42 226.53C1138.42 225.72 1137.37 224.94 1136.27 224.18C1132.22 221.4 1128.01 219.29 1123.53 218.08C1119.51 217 1115.35 216.56 1111.07 216.71C1110.63 215.58 1110.2 214.44 1109.74 213.32L1107.14 207.04C1105.38 202.86 1103.61 198.6 1101.75 194.42L1091.42 188.33C1087.99 186.27 1084.46 184.41 1080.98 182.44C1080.32 180.52 1079.83 178.95 1079.51 177.74C1079.39 173.88 1079.98 169.54 1081.26 164.78L1073.22 152.38C1067.52 163.69 1062.89 174.36 1059.24 184.35C1058.81 182.17 1058.16 180.07 1057.27 178.08C1056.38 176.11 1055.26 174.24 1053.93 172.47C1052.59 170.7 1051.04 169.02 1049.26 167.44C1047.87 166.19 1046.3 165.04 1044.62 163.96C1044.55 163.84 1044.49 163.73 1044.43 163.61C1044.04 163.43 1043.65 163.25 1043.27 163.07L1043.26 163.06C1040 161.14 1035.88 159.02 1030.84 156.83C1028.31 155.77 1025.56 154.67 1022.59 153.55C1021.39 153.1 1020.14 152.63 1018.87 152.17C1001.58 144.82 983.99 138.17 966.11 132.42L956.07 129.2L945.96 126.22C939.24 124.17 932.42 122.49 925.63 120.65C922.23 119.76 918.81 118.99 915.39 118.16C911.97 117.36 908.57 116.48 905.13 115.78C898.26 114.32 891.4 112.8 884.49 111.58C890.83 118.06 896.94 124.85 902.89 131.5C919.11 135.21 935.19 139.45 951.11 144.28ZM970.92 231.26C965.07 215.58 953.88 200.67 936.96 187.78C955.37 184.75 972.73 184.2 988.55 185.69L970.92 231.26ZM1116.72 237.92C1124.75 238.14 1130.7 239.49 1134.2 242.11C1138.08 244.93 1138.64 248.25 1135.88 252.07C1133.84 254.9 1132.25 256.56 1131.14 257.07C1128.91 258.08 1124.69 258.01 1118.57 256.94C1112.37 255.97 1108.09 254.67 1105.62 252.96C1102.33 250.68 1101.82 247.98 1104.24 244.63C1107.37 240.17 1111.57 237.83 1116.72 237.92Z" fill="#00A651"/>
<path d="M1104.77 320.49C1103.97 315.26 1103.15 310.69 1102.37 306.8C1101.59 302.91 1100.76 299.82 1100.04 297.36C1098.72 293.08 1097.46 288.86 1096.07 284.98C1094.7 281.06 1093.34 277.3 1091.98 273.71C1090.64 270.09 1089.2 266.79 1087.84 263.57C1086.46 260.38 1085.12 257.33 1083.77 254.5L1067.14 281.13C1083.22 311.38 1090.66 333.42 1093.56 346.67C1094.41 351.01 1095.29 355.22 1096 359.56C1096.73 363.88 1097.43 368.15 1098.09 372.39L1108.43 360.16C1108.24 356.22 1108.02 352.42 1107.77 348.77C1107.52 345.12 1107.26 341.6 1106.92 338.33C1106.25 331.75 1105.57 325.71 1104.77 320.49Z" fill="#00A651"/>
<path d="M1421.3 781.73C1412.76 782.58 1404.23 783.4 1395.69 784.17L1399.28 781.13C1403.53 777.51 1407.25 774.02 1410.45 770.72C1413.64 767.41 1416.33 764.28 1418.36 761.36C1422.47 755.51 1424.52 750.51 1424.4 746.5C1424.33 744.98 1423.85 742.29 1422.95 738.43C1422.01 734.85 1421.01 731.54 1419.74 728.53C1418.48 725.52 1417.1 722.79 1415.6 720.35C1414.09 717.91 1412.48 715.75 1410.72 713.89C1408.93 712.02 1407.02 710.45 1404.99 709.15C1407.08 707.47 1409.03 705.04 1410.83 701.86C1410.93 701.62 1412.68 698.57 1415.69 692.59C1416.88 689.31 1417.64 685.81 1417.99 682.11C1418.35 678.41 1418.11 674.52 1417.54 670.44C1415.61 656.8 1413.07 643.26 1410.33 629.76C1410.24 629.97 1410.15 630.17 1410.06 630.38C1409.8 629.2 1409.54 628.03 1409.29 626.85C1407.8 619.7 1405.95 612.63 1404.24 605.53C1403.33 601.99 1402.35 598.48 1401.41 594.95C1400.47 591.42 1399.51 587.9 1398.44 584.41L1395.32 573.91L1391.97 563.49L1390.28 558.28L1388.48 553.11L1384.86 542.78L1381 532.54L1379.06 527.42L1377.01 522.35L1372.89 512.21L1368.54 502.17C1367.81 500.5 1367.1 498.82 1366.35 497.16L1364.06 492.2C1362.66 489.18 1361.28 486.16 1359.85 483.15C1351.23 464.05 1341.72 445.35 1331.36 427.14C1331.38 426.88 1331.4 426.62 1331.42 426.36C1327.39 419.41 1323.07 412.64 1318.81 405.83C1319.13 403.82 1319.41 402.23 1319.69 401.01C1321.37 397.57 1323.9 394.05 1327.28 390.45C1326.91 385.55 1326.57 380.58 1326.04 375.68C1315.72 382.91 1306.64 390.08 1298.75 397.12C1301.25 388.66 1300 379.7 1294.66 370.74C1294.6 370.65 1294.54 370.54 1294.48 370.44C1294.48 370.32 1294.47 370.2 1294.47 370.08C1294.1 369.57 1293.71 369.07 1293.33 368.56C1292.69 367.54 1292.01 366.5 1291.24 365.4C1289.89 363.51 1288.36 361.48 1286.65 359.32C1284.99 357.23 1283.19 354.99 1281.18 352.67C1246.25 308.35 1205.78 268.5 1160.98 234.42C1162.47 238.9 1163.97 243.29 1165.34 247.76C1166.71 252.24 1168.05 256.69 1169.35 261.12C1200.39 286.52 1229.11 314.81 1255.03 345.52L1240.7 357.87C1240.74 356.76 1240.72 355.69 1240.65 354.67C1240.72 352.44 1240.84 350.01 1240.99 347.4C1240.27 342.24 1237.78 337.08 1233.57 331.9C1231.27 329.22 1227.84 327.13 1223.35 325.72C1218.88 324.29 1214.96 323.97 1211.77 324.54L1211.7 321.57C1211.3 318.85 1210.68 316.21 1209.85 313.63C1209 311.07 1207.89 308.63 1206.59 306.25C1205.28 303.87 1203.76 301.57 1202.03 299.36C1200.27 297.17 1198.27 295.1 1196.08 293.11C1193.99 291.23 1191.87 289.58 1189.67 288.23C1187.45 286.9 1185.18 285.83 1182.88 285.01C1178.27 283.37 1173.5 282.78 1168.51 283.34C1159.68 284.34 1152.72 288.21 1147.42 294.75C1140.98 302.7 1138.83 311.71 1140.7 321.55C1141.6 326.51 1143.41 331.32 1146.23 335.91C1147.64 338.21 1149.21 340.55 1151.08 342.8C1152.92 345.08 1155.08 347.25 1157.36 349.52C1159.43 351.54 1161.51 353.22 1163.6 354.55C1164.65 355.22 1165.7 355.8 1166.75 356.29C1167.79 356.8 1168.83 357.24 1169.87 357.58C1174.05 358.96 1178.32 358.98 1182.69 357.64C1185.68 356.83 1188.29 353.27 1190.38 346.81C1193.13 338.9 1191.46 331.79 1185.19 325.98C1183.19 324.05 1181.15 322.47 1178.97 321.36C1176.79 320.25 1174.53 319.54 1172.22 319.24C1167.58 318.62 1163.89 319.91 1161.09 323.05C1159.89 324.4 1159.02 325.95 1158.48 327.7C1154.93 321.59 1155.05 316.28 1159.09 311.6C1162.24 307.96 1166.72 306.47 1172.64 307.19C1178.48 307.98 1183.82 310.6 1188.51 315.05C1194.28 320.68 1197.64 326.53 1198.29 332.66C1198.73 334.19 1198.77 337.99 1198.31 343.96C1197.94 346.82 1195.99 348.69 1192.51 349.63C1196.88 352.17 1201.22 354.78 1205.62 357.39C1209.84 351.57 1213.23 348.37 1215.84 347.87C1218.59 347.53 1221.04 348.62 1223.21 351.06C1225.77 353.98 1227.31 357.63 1227.54 362.15C1227.81 366.65 1226.84 369.8 1224.68 371.66L1176.76 412.97C1177.03 421.06 1176.91 429.25 1176.81 437.19L1269.27 362.87L1275.92 371.53C1275.95 371.57 1275.98 371.61 1276.01 371.64L1276.03 372.04C1277.44 373.89 1278.48 375.21 1279.1 376.07C1281.78 379.73 1283.61 383.57 1284.57 387.56C1285.55 391.53 1285.52 395.76 1284.69 400.04C1284.04 403.56 1281.86 406.6 1278.19 409.17L1208.49 457.99C1207.97 462.03 1207.3 466.11 1206.64 470.13C1205.96 474.16 1205.33 478.11 1204.55 482.1L1306.45 415.64C1307.87 417.91 1309.29 420.17 1310.7 422.44L1310.68 422.75C1318.05 434.85 1324.78 447.34 1331.36 459.89C1307.44 450.89 1287.39 452.41 1271.13 461.86C1252.21 472.9 1242.24 489.19 1239.37 509.78C1238.87 513.13 1238.98 516.63 1239.72 520.29C1240.46 523.94 1241.66 527.84 1243.59 531.87C1245.12 535.02 1246.82 537.85 1248.97 540.23C1251.08 542.63 1253.65 544.6 1256.44 546.25C1262.06 549.53 1267.61 550.14 1273.01 547.93C1279.1 545.44 1282.2 540.59 1282.26 533.23C1283.07 530.24 1282.67 526.92 1281.09 523.31C1280.49 521.93 1279.72 520.61 1278.8 519.33C1277.85 518.07 1276.71 516.86 1275.43 515.71C1268.56 509.84 1262.54 509.06 1257.33 513.07C1256.16 514.05 1254.72 516.13 1253.05 519.24C1252.72 519.84 1252.44 520.37 1252.18 520.85C1251.91 520.09 1251.75 519.48 1251.73 519.06C1252.06 511.24 1253.7 504.53 1257 498.83C1260.21 493.17 1264.95 488.58 1271.36 485.15C1275.05 483.18 1280.27 481.03 1287.04 478.77C1297.35 475.29 1307.49 475.36 1317.63 479.19C1322.75 481.08 1327.67 484 1332.63 487.84C1337.64 491.66 1342.37 496.56 1347.14 502.37C1351.72 508.14 1355.94 515.03 1359.7 522.99L1302.32 547.16C1300.89 551.95 1299.5 556.67 1297.98 561.36C1296.43 566.07 1294.87 570.72 1293.28 575.31C1299.22 575.79 1304.82 576.93 1310.25 578.68C1312.96 579.56 1315.6 580.59 1318.19 581.78C1320.77 582.98 1323.22 584.35 1325.65 585.88C1330.49 588.93 1335.13 592.61 1339.3 596.98C1341.41 599.16 1343.45 601.49 1345.43 603.98C1347.37 606.48 1349.19 609.16 1350.96 611.97C1342.31 612.08 1333.76 613.4 1325.26 615.79C1314.89 618.69 1300.38 625.83 1281.53 636.29C1280.68 641.59 1279.82 646.83 1278.9 652.03C1294.76 644.89 1303.39 641 1305.05 640.79C1308.26 639.44 1311.46 638.36 1314.66 637.57C1322.21 635.7 1330.71 635.27 1340.21 636.5C1349.62 637.75 1360.03 640.66 1371.39 645.54C1373.03 640.1 1374.6 634.61 1376.18 629.05C1377.69 623.51 1379.1 617.92 1380.53 612.26C1375.49 603.66 1370.58 596.22 1365.62 589.99C1360.79 583.72 1355.86 578.66 1351.28 574.65C1349.1 572.82 1346.99 571.15 1345 569.6C1343.02 568.07 1341.18 566.65 1339.48 565.34C1336.08 562.74 1333.21 560.63 1330.81 559L1368.82 544.59C1384.24 586.18 1395.43 629.4 1402.07 673.33C1402.3 675.8 1402.36 678.17 1402.17 680.38C1401.96 682.97 1401.34 685.4 1400.5 687.62C1398.35 690.86 1396.48 693.3 1394.89 694.95C1391.9 688.79 1387.83 683.57 1382.37 679.39C1376.44 674.66 1371.22 672.75 1366.68 673.46C1362 674.2 1358.06 676.79 1354.87 681.12C1353.28 683.29 1352.19 685.67 1351.62 688.28C1351.01 690.89 1350.85 693.74 1351.23 696.82C1351.48 698.94 1352.01 701.06 1352.82 703.2C1353.6 705.34 1354.6 707.5 1355.9 709.68C1358.47 714.03 1361.42 717.28 1364.56 719.4C1358.39 726.06 1355.75 733.4 1356.04 741.77C1356.15 744.35 1356.44 746.68 1356.89 748.79C1357.32 750.9 1357.87 752.77 1358.63 754.41C1360.13 757.7 1362.32 760.06 1365.22 761.51C1369.47 762.83 1372.35 763.52 1373.86 763.5C1377.26 763.47 1380.82 761.56 1384.56 757.67C1388.3 753.78 1392.25 747.91 1396.07 739.94C1397.68 740.49 1399 741.81 1400.04 743.91C1400.56 744.96 1401.01 746.21 1401.38 747.65C1401.74 749.09 1401.99 750.73 1402.18 752.55C1402.69 757.56 1399.5 763.64 1392.07 770.44C1385.61 776.39 1380.96 779.22 1378.13 779.18L1307.31 777.26C1301.97 783.53 1296.43 789.62 1290.85 795.52L1408.38 801.23C1407.74 814.76 1406.67 828.27 1405.21 841.74C1411.21 834.95 1417.11 827.98 1422.9 820.81C1423.27 815.84 1423.6 810.86 1423.86 805.88C1424.8 802.46 1426.26 800.03 1428.29 798.59C1429.35 798.64 1430.4 798.68 1431.46 798.73C1433.59 798.39 1435.36 797.6 1436.77 796.35C1439.78 792.56 1443.53 787.24 1447.83 780.26L1421.3 781.73ZM1248.31 521.42C1249.16 522.43 1249.91 523.22 1250.58 523.84C1249.92 524.05 1249.17 523.26 1248.31 521.42Z" fill="#00A651"/>
<path d="M577.869 517.85C577.869 517.85 577.869 517.86 577.869 517.87C577.879 517.85 577.869 517.85 577.869 517.85Z" fill="#FFCB05"/>
<path d="M1047 1078.07C1046.69 1075.59 1042.66 1064.9 1041.37 1060.25C1040.08 1055.6 1039.25 1045.53 1038.48 1038.1C1037.71 1030.66 1038.94 1017.03 1039.41 1008.35C1039.87 999.67 1040.65 995.03 1040.03 991.15C1039.41 987.28 1036.16 981.54 1035.07 976.74C1033.99 971.94 1038.17 969.92 1040.65 964.81C1043.13 959.7 1038.64 951.95 1036.47 947.3C1034.3 942.65 1032.75 929.64 1033.68 928.86C1034.61 928.09 1034.76 922.51 1033.68 916.93C1032.6 911.35 1032.6 913.52 1031.27 909.18C1029.95 904.84 1030.58 903.91 1029.81 896.94C1029.04 889.97 1027.64 890.74 1025.63 890.12C1023.62 889.5 1025.63 890.12 1024.39 883.61C1023.15 877.1 1020.05 870.29 1016.02 865.79C1011.99 861.3 1013.23 861.3 1013.85 853.55C1014.47 845.8 1013.7 847.04 1011.99 842.71C1010.29 838.37 1010.6 825.82 1011.53 819.32C1012.46 812.81 1012.61 812.66 1012.61 806.62C1012.61 800.58 1007.34 788.34 1005.02 781.06C1002.7 773.78 1002.39 776.41 1001.61 771.76C1000.83 767.11 1003 766.18 1002.38 761.84C1001.76 757.5 998.82 759.05 998.82 759.05C998.82 759.05 997.119 760.91 996.649 761.37C996.189 761.83 995.1 762.3 990.14 761.22C985.18 760.14 989.06 760.6 987.97 759.05C986.89 757.5 985.649 756.88 985.649 756.88C985.649 756.88 983.479 757.96 982.549 759.36C981.619 760.75 980.38 763.39 977.75 765.4C975.12 767.41 972.64 766.02 970 764.63C967.37 763.24 969.23 764.01 967.37 761.53C965.51 759.05 964.27 760.91 962.88 760.91C961.49 760.91 959.009 763.23 957.919 765.25C956.839 767.26 958.229 780.59 958.539 782.45C958.849 784.31 959.16 785.39 959.47 787.72C959.78 790.04 959.319 789.73 959.159 791.28C958.999 792.83 954.2 795.15 948.31 800.27C942.42 805.38 941.18 808.33 938.24 812.51C935.3 816.69 938.389 826.92 939.169 833.58C939.939 840.24 941.179 841.33 938.549 845.2C935.919 849.07 934.21 849.85 931.11 854.19C928.01 858.53 920.42 862.09 914.38 858.22C908.34 854.35 909.889 853.42 908.649 847.38C907.409 841.34 905.09 836.84 902.61 828.48C900.13 820.11 899.98 821.82 899.98 821.82C887.43 816.24 890.37 827.09 890.37 833.28C890.37 839.48 890.519 843.82 889.289 843.66C888.049 843.51 886.04 840.72 884.18 837.46C882.32 834.21 883.72 833.9 881.08 826C878.44 818.1 879.22 809.42 878.45 802.76C877.68 796.1 870.24 785.1 867.61 779.21C864.98 773.32 865.6 774.1 866.68 768.06C867.76 762.02 868.38 766.51 868.69 764.65C868.69 764.65 866.99 761.86 866.99 760.78C866.99 759.7 867.609 759.23 868.539 757.06C869.469 754.89 870.71 754.27 873.5 750.09C876.29 745.91 877.53 738.94 877.68 733.51C877.83 728.08 879.38 728.55 880.47 726.07C881.56 723.59 884.5 726.53 889.46 723.9C894.42 721.27 892.09 721.73 892.87 719.1C893.64 716.47 894.569 713.37 896.279 709.65C897.979 705.93 899.53 709.65 900.93 710.42C902.32 711.19 911 713.52 916.58 712.9C922.16 712.28 922.47 713.06 922.47 713.06C922.47 713.06 922.78 710.89 923.24 709.03C923.7 707.17 924.32 705.47 925.25 702.99C926.18 700.51 925.71 700.98 926.18 699.74C926.65 698.5 927.57 698.35 927.57 698.35C927.57 698.35 929.27 699.43 929.89 699.9C930.51 700.36 932.68 702.69 938.26 704.24C943.84 705.79 940.43 703.16 941.36 700.83C942.29 698.51 941.36 700.83 939.97 698.04C938.58 695.25 938.269 694.01 938.269 694.01C938.269 694.01 941.52 692.62 941.99 692.62C942.46 692.62 943.85 692.78 945.86 693.24C947.87 693.7 948.18 695.1 949.89 698.66C951.59 702.22 952.68 704.39 955.47 704.7C958.26 705.01 960.58 700.52 961.36 698.04C962.13 695.56 962.6 694.48 962.6 692.93C962.6 691.38 963.84 687.51 964.61 684.72C965.38 681.93 965.69 684.1 966.93 683.64C968.17 683.18 969.719 683.18 970.029 682.71C970.339 682.25 971.89 681.47 971.58 678.84C971.27 676.21 970.19 677.6 970.19 677.6L970.5 671.71C970.5 671.71 974.37 672.64 979.95 672.64C985.53 672.64 985.37 671.09 985.37 671.09C985.37 671.09 986.76 663.5 986.76 662.88C986.76 662.26 988.31 657.92 989.24 655.44C990.17 652.96 990.789 652.96 990.789 652.96C990.789 652.96 994.199 653.58 997.299 653.42C1000.4 653.26 1000.55 652.34 1001.48 652.18C1002.41 652.02 1001.63 637.77 1001.33 634.05C1001.02 630.33 1002.26 630.18 1003.5 627.39C1004.74 624.6 1005.36 622.59 1004.74 617.63C1004.12 612.67 1003.35 614.22 1002.26 610.97C1001.18 607.72 1002.88 606.48 1004.74 606.01C1006.6 605.55 1008.77 607.56 1017.44 610.5C1026.12 613.44 1029.06 607.71 1031.07 603.84C1033.08 599.97 1021 589.12 1017.9 585.25C1014.8 581.38 1009.07 580.45 1000.86 577.81C992.65 575.18 991.41 573.01 983.35 568.82C975.29 564.64 966.46 565.57 954.69 565.1C942.92 564.64 940.9 567.73 932.23 570.37C923.55 573 926.34 567.12 924.33 565.41C922.32 563.71 916.89 566.03 915.19 568.82C913.49 571.61 908.06 570.21 904.35 567.74C900.63 565.26 896.599 566.35 895.519 566.97C894.439 567.59 893.82 567.43 886.22 562.63C878.63 557.83 877.54 560.46 875.68 561.55C873.82 562.63 872.269 563.56 865.919 561.71C859.569 559.85 859.72 562.02 850.12 562.02C840.51 562.02 843.3 564.03 838.5 566.67C833.7 569.3 825.95 567.44 817.12 564.81C808.29 562.18 793.57 564.81 791.87 566.67C790.17 568.53 785.21 568.22 785.21 568.22C785.21 568.22 773.59 567.45 767.08 564.66C760.57 561.87 759.49 561.87 755 560.32C750.51 558.77 744.46 558.31 738.89 556.91C733.31 555.52 734.09 555.67 734.09 555.67C734.09 555.67 730.84 552.26 728.36 550.4C725.88 548.54 722.319 548.54 716.899 548.54C711.479 548.54 711.01 547.77 707.45 547.3C703.89 546.83 704.35 545.6 703.73 545.13C703.11 544.67 703.419 543.89 703.419 541.88C703.419 539.87 704.04 538.01 704.5 534.91C704.96 531.81 706.36 530.11 706.82 522.98C707.28 515.85 708.369 516.32 711.159 509.04C713.949 501.76 711.62 499.12 707.75 494.94C703.88 490.76 705.889 489.52 707.909 484.71C709.919 479.91 715.659 476.5 717.049 470.15C718.439 463.8 715.189 461.63 709.769 457.29C704.349 452.95 702.799 449.54 700.779 447.06C698.769 444.58 699.39 442.41 699.08 439.31C698.77 436.21 698 435.13 697.38 434.04C696.76 432.96 693.97 432.03 692.73 430.17C691.49 428.31 690.56 426.76 688.7 425.06C686.84 423.36 686.53 425.06 683.74 426.61C680.95 428.16 676.769 433.58 676.769 437.45C676.769 441.32 678.63 441.94 678.63 443.34C678.63 444.73 676.93 446.75 677.24 451.71C677.55 456.67 662.059 455.27 656.169 452.95C650.279 450.63 648.889 450.32 643.929 448.77C638.969 447.22 625.029 431.42 623.789 429.4C622.549 427.39 620.689 414.37 619.299 409.1C617.909 403.83 614.81 400.89 611.24 398.1C607.68 395.31 600.09 395.16 596.99 396.55C593.89 397.94 594.98 403.37 595.6 405.23C596.22 407.09 601.95 409.72 604.74 411.58C607.53 413.44 610.16 417 610.01 418.09C609.85 419.17 606.449 419.48 602.419 419.48C598.389 419.48 597.459 416.54 594.669 414.37C591.879 412.2 590.49 414.22 589.09 416.69C587.7 419.17 586.15 418.86 586.15 418.86C586.15 418.86 574.839 405.23 568.799 399.18C562.759 393.14 551.139 384.15 546.179 381.83C541.219 379.51 536.88 375.94 536.88 375.94C536.88 375.94 537.19 367.57 537.34 366.95C537.49 366.33 537.34 365.71 534.4 365.71C531.46 365.71 529.91 367.57 529.13 370.05C528.36 372.53 526.81 375.16 524.33 378.73C521.85 382.29 521.39 389.27 522.16 390.97C522.93 392.67 527.27 392.21 528.82 390.04C530.37 387.87 531.76 387.25 535.33 388.03C538.89 388.8 540.75 392.68 541.84 396.55C542.92 400.42 538.28 403.68 533.78 405.69C529.29 407.7 528.05 410.03 525.1 414.21C522.16 418.39 520.449 422.73 511.619 425.67C502.789 428.61 500.47 444.11 499.85 448.29C499.23 452.47 495.979 453.25 493.809 457.12C491.639 460.99 492.26 469.67 493.04 474.32C493.81 478.97 499.55 481.14 503.42 480.36C507.29 479.59 509.309 476.33 509.309 476.33C509.309 476.33 511.479 477.57 513.179 479.74C514.879 481.91 521.24 487.95 528.21 491.98C535.18 496.01 538.75 506.54 544.94 513.05C551.14 519.56 561.98 523.28 565.08 521.57C568.18 519.87 569.57 517.54 573.91 517.85C577.66 518.12 577.93 517.92 577.94 517.87V517.85C577.94 517.85 577.94 517.86 577.94 517.87C577.96 517.95 578.87 523.02 579.64 529.47C580.41 535.98 581.81 533.96 584.44 536.75C587.07 539.54 590.169 544.19 590.169 544.19C590.169 544.19 592.03 555.96 590.48 559.37C588.93 562.78 575.76 560.61 573.44 560.61C571.12 560.61 570.809 559.68 566.619 557.05C562.439 554.42 558.1 558.29 552.83 559.84C547.56 561.39 546.48 558.14 545.7 557.67C544.93 557.21 533.15 557.05 533.15 557.05C533.15 557.05 533.15 563.87 531.76 570.37C530.37 576.88 529.899 581.06 526.799 584.78C523.699 588.5 519.67 589.12 517.5 591.21C515.33 593.3 519.2 597.18 518.89 598.73C518.58 600.28 514.089 599.81 507.429 594.7C500.769 589.59 495.35 591.6 495.35 591.6C495.35 591.6 495.2 592.53 494.42 600.12C493.64 607.71 488.689 613.44 485.429 617.47C482.179 621.5 479.85 626.92 479.7 631.57C479.55 636.22 484.66 639.01 489.77 645.05C494.88 651.09 513.94 663.95 523.54 668.44C533.15 672.93 537.17 676.65 544.46 677.58C551.74 678.51 558.87 679.59 562.28 681.45C565.69 683.31 566 689.51 566 694.62C566 699.73 563.06 699.42 560.89 702.68C558.72 705.93 559.96 707.48 563.21 712.91C566.46 718.33 565.38 718.64 564.29 723.45C563.21 728.25 559.019 728.41 554.989 732.28C550.959 736.15 546.159 741.58 543.989 748.08C541.819 754.59 543.059 759.23 543.989 767.6C544.919 775.97 556.82 781.66 556.82 781.66C559.47 783.64 567.209 787.02 567.489 788.38C567.769 789.73 567.04 791.6 565.97 793.46C564.9 795.32 562.64 800.01 561.4 802.55C560.16 805.09 559.989 806.84 560.549 812.82C561.109 818.8 564.61 819.82 564.61 819.82H591.029C591.029 819.82 591.26 822.59 591.14 824.05C591.03 825.52 588.77 826.59 587.02 827.44C585.27 828.29 581.71 832.46 579.85 834.61C577.99 836.75 575.84 842.85 576.07 847.03C576.3 851.21 577.59 852.79 578.22 855.05C578.84 857.31 579.91 859.06 580.82 860.53C581.73 862 581.67 864.14 582.34 865.84C583.02 867.53 585.05 870.69 586.23 871.65C587.42 872.61 588.259 874.53 587.919 877.41C587.579 880.29 586.9 881.25 583.97 882.72C581.03 884.19 581.819 888.31 582.619 889.21C583.409 890.11 586.68 890.62 587.87 892.15C589.06 893.67 588.27 895.42 586.35 897.85C584.43 900.28 584.04 904.29 584.71 907.5C585.39 910.72 588.66 913.6 590.19 915.18C591.72 916.76 591.039 924.1 590.529 927.66C590.019 931.22 588.89 934.26 588.95 938.22C589.01 942.17 590.93 948.61 592.73 952.56C594.54 956.51 598.09 958.94 599.22 961.2C600.35 963.46 599.78 964.87 598.94 967.35C598.09 969.83 597.699 971.58 597.529 975.14C597.359 978.7 599.17 982.42 600.24 984.51C601.31 986.6 601.14 989.99 600.47 991.62C599.79 993.26 599.12 992.69 596.57 995.8C594.03 998.9 595.22 1010.76 596.06 1013.86C596.91 1016.96 598.21 1018.94 601.14 1021.09C604.08 1023.24 607.24 1025.49 610 1023.91C612.77 1022.33 611.519 1016.97 610.169 1014.37C608.819 1011.77 605.149 1011.32 604.299 1010.19C603.449 1009.06 603.569 997.83 603.789 996.02C604.019 994.21 606.56 994.95 606.56 995.17C606.56 995.4 607.07 999.69 607.46 1004.03C607.86 1008.38 608.98 1010.01 609.21 1010.41C609.44 1010.81 613.67 1010.86 613.95 1009.9C614.23 1008.94 614.57 1008.71 614.74 1008.49C614.91 1008.26 615.759 1008.21 616.549 1008.15C617.339 1008.09 616.549 1008.88 616.549 1009.39C616.549 1009.9 617.06 1010.12 617.45 1010.07C617.85 1010.01 619.309 1010.8 619.309 1010.8V1031.69C619.309 1031.69 621.23 1033.95 622.7 1034.06C624.17 1034.17 627.05 1032.48 628.23 1030.67C629.42 1028.86 629.64 1027.34 629.87 1025.98C630.1 1024.63 629.469 1023.38 629.189 1023.27C628.909 1023.16 628.629 1023.21 628.289 1023.1C627.949 1022.99 627.84 1022.7 627.95 1022.37C628.06 1022.03 627.95 1020.85 627.95 1020.06C627.95 1019.27 628.85 1018.65 629.25 1018.2C629.65 1017.75 628.97 1003.69 628.97 1001.72C628.97 999.74 628.519 997.99 627.279 996.75C626.039 995.51 624.63 995.79 622.48 988.17C620.33 980.55 626.939 969.43 626.939 969.43L633.49 969.32C633.49 969.32 634 973.72 633.72 974.29C633.44 974.86 633.04 974.74 632.08 975.64C631.12 976.54 631.229 978.24 631.779 980.21C632.329 982.19 637.27 987.15 639.36 988.79C641.45 990.43 642.309 992.23 642.309 992.23V1002.78H631.779V1009.88C631.779 1009.88 633.669 1010.82 635.939 1011.21C638.209 1011.6 637.1 1013.04 638.1 1015.15C639.1 1017.26 639.039 1018.42 640.149 1020.14C641.259 1021.86 646.41 1021.08 650.13 1019.25C653.85 1017.42 654.12 1012.49 653.96 1010.71C653.79 1008.94 652.96 1009.05 651.85 1007.77C650.74 1006.49 650.85 1006.38 650.35 1004.61C649.85 1002.84 650.35 997.79 650.35 997.79L657.45 997.46C657.45 997.46 657.67 993.19 657.89 989.53C658.11 985.87 657.22 985.87 657 985.54C656.78 985.21 656.109 984.38 655.059 983.16C654.009 981.94 653.62 981.05 652.84 979.56C652.06 978.07 652.67 976.68 653.62 974.46C654.56 972.24 656.06 972.8 656.45 972.91C656.84 973.02 657.67 974.57 657.95 975.18C658.23 975.79 657.89 978.06 657.95 978.95C658.01 979.84 659.17 981.72 659.89 982.61C660.61 983.5 660.609 984.77 661.549 984.99C662.489 985.21 662.94 984.71 663.21 983.83C663.48 982.95 664.429 981.67 664.929 981.5C665.429 981.33 665.429 980.06 665.429 980.06L665.689 972.28H681.419C681.419 972.28 682.159 973.39 683.039 974.13C683.929 974.87 687.77 974.2 688.87 974.54C689.98 974.87 690.46 976.72 690.75 977.12L692.22 979C692.22 979 694.37 978.78 694.37 977.71C694.37 976.63 693.289 975.56 692.429 974.91C691.569 974.26 691.35 972.33 691.35 972.33C691.35 972.33 692.53 971.9 693.39 972.01C694.25 972.12 696.399 973.3 696.399 973.3C696.399 973.3 696.719 975.24 696.939 975.56C697.149 975.88 697.59 977.39 698.23 977.6C698.87 977.81 700.7 977.06 701.35 976.74C702 976.42 701.57 973.08 701.89 971.9C702.21 970.72 705.219 970.61 705.649 970.61C706.079 970.61 706.73 971.79 706.73 973.3C706.73 974.81 706.62 977.6 706.62 979C706.62 980.4 706.509 980.61 704.789 981.37C703.069 982.12 704.689 983.91 704.689 983.91C704.989 984.83 706.169 984.94 706.649 985.24C707.129 985.54 706.98 988.3 706.98 989.26C706.98 990.22 707.53 992.1 707.76 992.29C707.98 992.47 709.09 992.51 709.09 992.47C709.09 992.43 709.09 991.69 709.09 990.07C709.09 988.45 709.72 987.54 709.72 987.54C714.79 986.17 719.76 989.55 719.76 989.55C719.76 989.55 721.029 999.7 721.769 1002.13C722.509 1004.56 724.41 1005.94 727.58 1006.99C730.75 1008.05 739.529 1012.59 745.019 1011.85C750.519 1011.11 752.63 1004.24 754.22 1002.97C755.81 1001.7 757.29 1003.92 758.13 1005.3C758.98 1006.67 763.419 1005.72 763.419 1005.72L763.84 997.79C763.84 997.79 770.079 998.11 773.779 997.26C777.479 996.41 780.76 991.23 782.34 988.7C783.93 986.16 791.64 982.67 791.64 982.67C794.28 990.18 803.799 984.78 803.799 984.78C826.849 972.52 828.269 950 828.269 950C828.419 937.52 834.669 939.74 834.669 939.74C839.429 945.13 835.299 957.5 835.299 957.5C826.569 966.5 828.43 975.68 828.43 975.68C831.5 978.85 835.409 976 835.409 976C848.199 965.11 843.87 915.31 843.87 915.31H871.149C871.149 915.31 872.52 914.57 877.6 912.14C882.67 909.71 881.829 910.45 884.159 907.91C886.489 905.37 887.86 899.77 888.6 898.08C889.34 896.39 891.559 897.45 893.779 897.45C895.999 897.45 896.32 895.76 899.59 892.9C902.87 890.05 906.78 893.96 907.1 894.17C907.42 894.38 917.039 906.43 918.409 909.08C919.779 911.72 928.98 926 931.73 932.34C934.48 938.68 935.85 945.13 937.23 953.06C938.6 960.99 943.89 968.39 946.11 971.46C948.33 974.53 947.17 979.71 948.12 986.05C949.07 992.39 946.959 998.42 945.159 999.58C943.359 1000.74 942.31 1000.74 941.99 1000.95C941.67 1001.16 941.67 1019.98 941.99 1024.42C942.31 1028.86 944.42 1029.39 947.59 1035.1C950.76 1040.81 949.28 1048.21 947.59 1050.64C945.9 1053.07 945.9 1053.39 948.01 1056.98C950.12 1060.57 957.099 1058.78 958.789 1062.67C960.479 1066.57 958.05 1065.86 962.38 1070.51C966.71 1075.16 965.45 1086.47 966.93 1092.4C968.41 1098.32 972.429 1104.98 975.919 1109.21C979.409 1113.44 980.989 1116.61 982.899 1120.73C984.799 1124.85 988.72 1131.73 991.68 1137.01C994.64 1142.3 1000.56 1153.29 1003.63 1157.52C1006.7 1161.75 1009.76 1161.85 1010.61 1159C1011.46 1156.15 1007.65 1147.58 1005.32 1143.46C1002.99 1139.34 1002.57 1135.42 1000.03 1129.08C997.489 1122.74 996.54 1119.46 996.44 1115.34C996.33 1111.22 991.15 1104.66 988.51 1099.9C985.87 1095.14 986.5 1092.29 986.61 1089.33C986.72 1086.37 987.03 1082.99 988.09 1078.12C989.15 1073.26 1001.35 1064.77 1001.35 1064.77C1010.7 1056.71 1013.61 1074.45 1013.61 1074.45C1013.61 1074.45 1014.65 1077.14 1019.61 1074.35C1024.57 1071.56 1025.19 1071.72 1027.51 1071.87C1029.83 1072.02 1031.07 1078.22 1031.69 1080.55C1032.31 1082.87 1036.03 1085.97 1039.9 1087.06C1043.74 1088.14 1047.31 1080.55 1047 1078.07ZM788.81 972.73C788.81 972.73 786.939 974.49 785.399 975.37C783.859 976.25 781.66 978.89 780.24 980.53C778.81 982.18 776.72 984.16 772.99 984.82C769.26 985.48 767.5 984.71 763.33 985.37C759.16 986.03 759.579 989.33 756.289 990.02C752.989 990.72 747.059 990.86 743.649 988.95C740.239 987.04 742.989 980.09 745.409 977.24C747.829 974.38 755.41 977.68 756.62 978.67C757.83 979.66 760.47 977.9 761.24 977.02C762.01 976.14 763.22 977.24 765.97 977.9C768.72 978.56 779.27 974.38 782.34 970.98C785.42 967.57 788.82 968.78 788.82 968.78C788.82 968.78 790.14 969.22 790.36 970.87C790.57 972.51 788.81 972.73 788.81 972.73Z" fill="#FFCB05"/>
<path d="M702.609 988.43C702.399 987.25 701.529 983.91 701.529 983.91C701.529 983.91 700.349 983.16 699.589 982.73C698.839 982.3 694.749 982.73 694.749 982.73C694.749 982.73 691.309 986.06 692.169 989.72C693.029 993.38 692.679 995.96 693.389 998.32C694.099 1000.69 698.189 1002.3 700.129 1001.55C702.069 1000.8 704.969 1000.8 705.179 998.97C705.399 997.14 705.609 993.92 705.179 992.84C704.759 991.76 702.819 989.61 702.609 988.43Z" fill="#FFCB05"/>
<path d="M685.51 993.27C684.76 990.47 687.55 987.03 688.41 985.74C689.27 984.45 688.41 979.93 688.41 979.93C688.41 979.93 684 979.93 681.1 980.47C678.2 981.01 677.98 982.62 677.34 984.56C676.7 986.5 674.44 994.02 677.34 1001.74C680.24 1009.45 686.26 1008.54 689.49 1008.43C692.72 1008.32 692.07 1004.45 689.49 1001.12C686.91 997.78 686.27 996.06 685.51 993.27Z" fill="#FFCB05"/>
<path d="M680.57 1009.29C677.67 1007.35 675.52 1004.77 674.12 1004.02C672.72 1003.27 670.79 994.67 670.79 994.67C670.79 994.67 665.52 992.95 663.8 994.23C662.08 995.51 663.69 998.65 663.26 1000.05C662.83 1001.45 662.18 1003.71 661.54 1004.03C660.89 1004.35 660.25 1006.61 659.93 1006.93C659.61 1007.25 659.82 1008.97 659.93 1009.94C660.04 1010.91 660.79 1011.45 661.58 1012.74C662.37 1014.03 661.97 1015.43 661.65 1017.26C661.33 1019.09 662.19 1022.42 664.12 1023.71C666.06 1025 669.5 1021.56 669.17 1018.98C668.85 1016.4 667.02 1014.36 665.94 1012.53C664.86 1010.7 667.02 1009.63 667.02 1009.63L670.78 1013.29C670.78 1013.29 677.12 1017.91 680.13 1017.48C683.15 1017.03 683.47 1011.23 680.57 1009.29Z" fill="#FFCB05"/>
<path d="M637.32 1023.34C637.08 1022.66 637.03 1021.98 636.98 1021.84C636.93 1021.69 632.14 1021.45 632.14 1021.45C632.14 1021.45 630.98 1023.34 632.14 1023.39C633.3 1023.44 633.98 1023.63 634.08 1023.78C634.18 1023.93 634.47 1024.26 634.61 1024.75C634.76 1025.23 635 1026.74 636.11 1026.59C637.22 1026.44 639.06 1026.3 639.21 1026.25C639.36 1026.2 639.6 1025.57 639.6 1025.57L637.95 1024.03C637.95 1024.02 637.56 1024.02 637.32 1023.34Z" fill="#FFCB05"/>
<path d="M781.28 1005.79C780.41 1005.29 778.6 1005.91 775.8 1005.79C773 1005.67 773.81 1003.23 773.06 1002.67C773.06 1002.67 770.75 1003.23 769.13 1004.04C767.51 1004.85 768.51 1006.53 768.69 1007.34C768.88 1008.15 772.06 1010.08 772.8 1010.52C773.55 1010.96 777.35 1011.39 778.85 1011.27C780.35 1011.15 781.47 1010.46 782.9 1009.59C784.33 1008.72 783.77 1008.28 783.71 1007.22C783.65 1006.16 782.15 1006.29 781.28 1005.79Z" fill="#FFCB05"/>
<path d="M787.2 990.08C785.7 990.33 782.84 991.76 782.84 991.76C782.65 991.88 781.47 992.51 781.53 994.25C781.59 995.99 781.22 997.49 782.18 998.86C783.15 1000.23 785.83 1001.79 787.45 1000.98C789.07 1000.17 789.32 998.49 790.44 997.99C791.56 997.49 792.56 992.44 791.69 991.38C790.82 990.32 788.7 989.83 787.2 990.08Z" fill="#FFCB05"/>
<path d="M806.519 995.01C807.019 994.2 807.769 990.96 807.139 990.4C806.519 989.84 804.019 988.84 803.029 988.97C802.029 989.09 798.729 990.84 798.539 990.96C798.349 991.08 795.169 993.02 795.169 993.02C794.859 993.58 793.049 996.95 795.169 998.57C797.289 1000.19 798.849 1001.37 801.279 999.63C803.719 997.87 806.019 995.82 806.519 995.01Z" fill="#FFCB05"/>
<path d="M808.699 997.06C808.699 997.06 807.889 998.57 807.019 1001.21C806.149 1003.85 805.589 1003.79 803.969 1004.66C802.349 1005.53 801.409 1006.59 801.169 1008.03C800.919 1009.46 800.669 1011.96 802.479 1012.52C804.289 1013.08 810.889 1013.95 812.329 1011.77C813.759 1009.59 816.319 1004.85 815.009 1002.05C813.689 999.25 812.379 996.32 808.699 997.06Z" fill="#FFCB05"/>
<path d="M861.43 920.04C860.78 919.83 855.84 917.67 854.34 917.89C852.83 918.11 849.97 918.75 849.25 920.9C848.53 923.05 848.32 958.96 848.32 961.11C848.32 963.26 845.95 974.01 845.95 974.01C845.95 974.01 837.78 976.38 837.99 978.53C838.2 980.68 836.05 988.21 841.97 985.84C847.89 983.47 847.24 980.68 850.25 978.74C853.26 976.8 864.23 964.98 865.09 957.23C865.95 949.49 863.37 941.75 862.08 938.09C860.79 934.43 859.5 931.85 859.5 931.21C859.5 930.57 858.85 928.63 860.36 928.84C861.87 929.05 861.87 932.93 864.23 934.86C866.6 936.8 870.9 935.94 870.9 935.94C870.9 935.94 870.68 926.48 868.96 924.76C867.23 923.05 862.07 920.26 861.43 920.04Z" fill="#FFCB05"/>
<path d="M904.439 911.23C903.789 906.71 898.629 902.84 898.629 902.84C898.629 902.84 893.899 899.83 892.819 906.93C891.739 914.03 889.159 921.34 894.329 931.23C899.489 941.12 901.429 944.78 906.589 941.55C911.749 938.32 914.979 935.74 911.319 927.36C907.659 918.97 905.079 915.74 904.439 911.23Z" fill="#FFCB05"/>
</svg>
